# xmcd CD database file
#
# Track frame offsets:
#	150
#	13283
#	27429
#	40670
#	54763
#	70912
#	86551
#	98075
#	109728
#	124775
#	141099
#	167370
#	182652
#	197197
#	210157
#	236247
#
# Disc length: 3858 seconds
#
# Revision: 2
# Processed by: cddbd v1.5.2PL0 Copyright (c) Steve Scherf et al.
# Submitted via: CDex 1.81
#
DISCID=d20f1010
DTITLE=Oscar Peterson - JB 08 Oscar Peterson
DYEAR=2004
DGENRE=Jazz
TTITLE0=Time on my hands
TTITLE1=(If I could be with you) one hour tonight
TTITLE2=Louise
TTITLE3=Sweet Loraine
TTITLE4=East of the sun
TTITLE5=Laura
TTITLE6=Ghost of a chance
TTITLE7=The man I love
TTITLE8=Yesterdays
TTITLE9=A foggy day
TTITLE10=Tenderley
TTITLE11=These foolish things
TTITLE12=Easter Parade
TTITLE13=I've got a crush on you
TTITLE14=Alone together
TTITLE15=Body and soul
EXTD=YEAR: 2004
EXTT0=
EXTT1=
EXTT2=
EXTT3=
EXTT4=
EXTT5=
EXTT6=
EXTT7=
EXTT8=
EXTT9=
EXTT10=
EXTT11=
EXTT12=
EXTT13=
EXTT14=
EXTT15=
PLAYORDER=
